<svg version="1" xmlns="http://www.w3.org/2000/svg" width="1365.333" height="1365.333" viewBox="0 0 1024.000000 1024.000000"><path d="M473 1.5c-55.8 5-100.9 15.5-150 34.8-17.9 7.1-57.5 26.6-73.5 36.2-69.4 41.9-127.2 98.4-170.2 166-14.2 22.4-33.4 60.1-42.8 84-60.9 154.6-44.7 325 44.2 465 34.6 54.6 82.8 105 136.8 143.2 22.9 16.2 43.4 28.1 73.5 42.6 56.2 27.3 114.7 43.3 178.5 48.8 18 1.6 67 1.6 85 0 51-4.4 99.3-15.8 147-34.6 14.1-5.5 46.3-21 62-29.7C834.3 918.3 899.9 856.3 943 788c42.4-67.2 67.3-136.4 77-213.7 10.5-84.7-.6-170.8-32.5-251.8-5.5-14-20.9-46.2-29.7-62-37.5-67.3-95.2-129.7-160.3-173.3-19.7-13.2-32.7-20.7-57.5-33C677.5 23 618.9 7 544.7 1c-17-1.3-53.6-1.1-71.7.5zM442 348v35H335v329h-78V383H151v-70h291v35zm131.7-33.8c.5.7 25.9 52.4 56.4 114.9 30.5 62.6 55.7 113.4 56.1 113 .4-.3 25.7-51.9 56.2-114.6l55.4-114 38.6-.3 38.6-.2v399h-78l-.2-118.7-.3-118.6-35.5 74.9c-19.5 41.2-37 77.6-38.9 80.9-4.6 7.9-13.8 17.5-20.3 21-7.5 4.1-18.8 4.7-27.3 1.4-7.5-2.8-17.3-12.3-23.2-22.4-2.3-3.9-20.2-40.2-40-80.8L575.5 476l-.3 118-.2 118h-78V313h37.9c29.1 0 38.1.3 38.8 1.2z"/></svg>