<svg version="1" xmlns="http://www.w3.org/2000/svg" width="682.667" height="682.667" viewBox="0 0 512.000000 512.000000"><path d="M236 .6c-24.8 2.8-39.7 5.8-57.7 11.5C115.6 32.2 64 74.6 31.7 132.5c-14.5 26-24.9 57.6-29.8 91-1.8 12-1.8 53 0 65C10.6 347.5 35 397 75 437c40 40 89.5 64.4 148.5 73.1 12 1.8 53 1.8 65 0C347.5 501.4 397 477 437 437c40-40 64.4-89.5 73.1-148.5 1.8-12 1.8-53 0-65C501.4 164.5 477 115 437 75c-39.1-39.1-87.7-63.5-144.7-72.5C283 1 243.9-.3 236 .6zM115 240.5V351h108v31H80V130h35v110.5zm160-30.8c31.9 100.5 30 93.8 40.5 140 .4 1.8 1.2 2.3 3.8 2.3h3.2l3.9-15.3c5.5-21.7 13-44.2 43.5-130.2l26.9-76 17.7-.3 17.7-.2-.6 2.4c-.3 1.4-20.6 58-45 125.8l-44.4 123.3-23.5.3-23.6.2-6.5-20.2c-3.6-11.2-21.6-67.1-40.1-124.3-18.4-57.2-33.8-104.8-34.1-105.8-.5-1.6.8-1.7 17.4-1.7h17.9l25.3 79.7z"/></svg>