<svg version="1" xmlns="http://www.w3.org/2000/svg" width="682.667" height="682.667" viewBox="0 0 512.000000 512.000000"><path d="M232 1c-50.2 5.2-98.2 24.8-136.5 55.7-28.8 23.2-51.7 51.8-68.4 85.4C14.7 167 6.7 192.3 2.4 220.5c-2.6 16.9-2.6 54.1 0 71 7.1 46.5 26 89.9 54.3 125 23.2 28.8 51.8 51.7 85.4 68.4 24.9 12.4 50.2 20.4 78.4 24.7 16.9 2.6 54.1 2.6 71 0 46.5-7.1 89.9-26 125-54.3 28.8-23.2 51.7-51.8 68.4-85.4 12.4-24.9 20.4-50.2 24.7-78.4 2.6-16.9 2.6-54.1 0-71-7.1-46.5-26-89.9-54.3-125-23.2-28.8-51.8-51.7-85.4-68.4C345.3 14.8 319.3 6.6 292 2.5 279.6.6 244.2-.3 232 1zM115.8 240.7L116 351l53.8.2 53.7.3.3 15.2.3 15.3H79V256.7c0-69 .3-125.7.7-126.1.4-.3 8.6-.5 18.2-.4l17.6.3.3 110.2zm135.5-106c.8 2.7 12.7 40.3 26.5 83.8 27.7 87.3 28.5 90.1 33.7 113 1.9 8.8 3.8 17 4 18.2.4 1.8 1.2 2.3 3.8 2.3 3.3 0 3.3 0 5.1-7.7 4.9-21.1 13.3-46.8 41.4-126.3 16.7-47.6 30.8-86.8 31.1-87.3.4-.4 8.6-.6 18.3-.5l17.5.3L387.5 256l-45.2 125.5-23.6.3-23.6.2-9-27.7c-9.2-28.5-70.3-218-71.5-222.1l-.7-2.2h36l1.4 4.7z"/></svg>